{"title":"Wild.Target.BRRip.H264.Feel-Free","uid":5875225,"size":1355287554,"categoryP":"video","categoryS":"movies","magnet":"?xt=urn:btih:04ed2fc4e5ff538d8042f4ec084e64d7733c3459&amp;dn=Wild.Target.BRRip.H264.Feel-Free&amp;tr=udp%3A%2F%2Ftracker.openbittorrent.com%3A80&amp;tr=udp%3A%2F%2Fopen.demonii.com%3A1337&amp;tr=udp%3A%2F%2Ftracker.coppersurfer.tk%3A6969&amp;tr=udp%3A%2F%2Fexodus.desync.com%3A6969","seeders":0,"leechers":1,"uploader":".BONE.","files":8,"time":1286612365,"description":"Genre:Action | Comedy | Crime | Drama\nLanguage: English\nIMDB:http://www.imdb.com/title/tt1235189/\nSource:BluRay.x264-ALLiANCE\n\nGeneral\nComplete name :Wild.Target.BRRip.H264.Feel-Free\nFormat : MPEG-4\nFormat profile : Base Media\nCodec ID : isom\nFile size : 1.26 GiB\nDuration : 1h 37mn\nOverall bit rate : 1 847 Kbps\nVideo #1\nCodec ID : avc1\nCodec ID/Info : Advanced Video Coding\nDuration : 1h 37mn\nBit rate mode : Variable\nBit rate : 1 529 Kbps\nWidth : 652 pixels\nHeight : 352 pixels\nDisplay aspect ratio : 1.852\nFrame rate mode : Constant\nFrame rate : 24.390 fps\nResolution : 24 bits\nColorimetry : 4:2:0\nScan type : Progressive\nBits/(Pixel*Frame) : 0.273\nStream size : 1.04 GiB (83%)\nAudio #2\nID : 2\nFormat : AAC\nFormat/Info : Advanced Audio Codec\nFormat version : Version 4\nFormat profile : LC\nFormat settings, SBR : No\nCodec ID : 40\nDuration : 1h 37mn\nBit rate mode : Variable\nBit rate : 320 Kbps\nChannel(s) : 6 channels\nChannel positions : Front: L C R, Rear: L R, LFE\nSampling rate : 48.0 KHz\nResolution : 16 bits\nStream size : 219 MiB (17%)\n\nPlot:\nA hitman tries to retire but a beautiful thief may change his plans.\n","torrent":{"xt":"urn:btih:04ed2fc4e5ff538d8042f4ec084e64d7733c3459","amp;dn":"Wild.Target.BRRip.H264.Feel-Free","amp;tr":["udp%3A%2F%2Ftracker.openbittorrent.com%3A80","udp%3A%2F%2Fopen.demonii.com%3A1337","udp%3A%2F%2Ftracker.coppersurfer.tk%3A6969","udp%3A%2F%2Fexodus.desync.com%3A6969"],"infoHash":"04ed2fc4e5ff538d8042f4ec084e64d7733c3459","infoHashBuffer":{"type":"Buffer","data":[4,237,47,196,229,255,83,141,128,66,244,236,8,78,100,215,115,60,52,89]},"announce":[],"urlList":[]}}